{
  "asset": {
    "version": "2.0",
    "generator": "gltfeditor.com"
  },
  "buffers": [
    {
      "uri": "data:application/octet-stream;base64,",
      "byteLength": 552
    }
  ],
  "bufferViews": [
    {
      "buffer": 0,
      "byteOffset": 0,
      "byteLength": 288,
      "byteStride": 12,
      "target": 34962
    },
    {
      "buffer": 0,
      "byteOffset": 288,
      "byteLength": 192,
      "byteStride": 8,
      "target": 34962
    },
    {
      "buffer": 0,
      "byteOffset": 480,
      "byteLength": 72,
      "target": 34963
    }
  ],
  "accessors": [
    {
      "bufferView": 0,
      "byteOffset": 0,
      "componentType": 5126,
      "count": 24,
      "min": [
        -1,
        -1,
        -1
      ],
      "max": [
        1,
        1,
        1
      ],
      "type": "VEC3"
    },
    {
      "bufferView": 1,
      "byteOffset": 0,
      "componentType": 5126,
      "count": 24,
      "min": [
        0,
        0
      ],
      "max": [
        1,
        1
      ],
      "type": "VEC2"
    },
    {
      "bufferView": 2,
      "byteOffset": 0,
      "componentType": 5123,
      "normalized": false,
      "count": 36,
      "min": [
        0
      ],
      "max": [
        23
      ],
      "type": "SCALAR"
    }
  ],
  "scene": 0,
  "scenes": [
    {
      "nodes": [
        0
      ]
    }
  ],
  "nodes": [
    {
      "name": "Cube",
      "matrix": [
        1,
        0,
        0,
        0,
        0,
        0.4000000059604645,
        0,
        0,
        0,
        0,
        1,
        0,
        0,
        0,
        0,
        1
      ],
      "mesh": 0
    }
  ],
  "meshes": [
    {
      "primitives": [
        {
          "material": 0,
          "mode": 4,
          "attributes": {
            "POSITION": 0,
            "TEXCOORD_0": 1
          },
          "indices": 2
        }
      ]
    }
  ],
  "materials": [
    {
      "name": "",
      "pbrMetallicRoughness": {
        "baseColorFactor": [
          0.9176470588235294,
          0.043137254901960784,
          0.043137254901960784,
          1
        ],
        "metallicFactor": 0,
        "roughnessFactor": 0.5
      },
      "emissiveFactor": [
        0,
        0,
        0
      ],
      "alphaMode": "OPAQUE",
      "doubleSided": false,
      "extensions": {
        "KHR_materials_volume": {
          "thicknessFactor": 1,
          "attenuationColor": [
            1,
            1,
            1
          ],
          "attenuationDistance": null
        }
      }
    }
  ],
  "extensionsUsed": [
    "KHR_materials_volume"
  ]
}